<?xml version="1.0" encoding="utf-8"?>
<!-- Generator: Adobe Illustrator 25.1.0, SVG Export Plug-In . SVG Version: 6.00 Build 0)  -->
<svg version="1.1" id="Layer_1" xmlns="http://www.w3.org/2000/svg" xmlns:xlink="http://www.w3.org/1999/xlink" x="0px" y="0px"
	 viewBox="0 0 1588 2000" style="enable-background:new 0 0 1588 2000;" xml:space="preserve">
<style type="text/css">
	.st0{fill:#CFE9D9;stroke:#6C9B71;stroke-width:5;stroke-miterlimit:10;}
	.st1{fill:#E1D3E8;stroke:#826E8D;stroke-width:5;stroke-miterlimit:10;}
	.st2{fill:#FFFFFF;stroke:#000000;stroke-width:5;stroke-miterlimit:10;}
	.st3{font-family:'MyriadPro-Regular';}
	.st4{font-size:80.3262px;}
</style>
<path class="st0" d="M1158.82,1878.05H303.19c-45.58,0-82.53-36.95-82.53-82.53V193.02c0-45.58,36.95-82.53,82.53-82.53h855.62
	c45.58,0,82.53,36.95,82.53,82.53v1602.51C1241.34,1841.1,1204.4,1878.05,1158.82,1878.05z"/>
<path class="st1" d="M1278.75,1101.94H423.13c-45.58,0-82.53-36.95-82.53-82.53V379.66c0-45.58,36.95-82.53,82.53-82.53h855.62
	c45.58,0,82.53,36.95,82.53,82.53v639.75C1361.28,1064.99,1324.33,1101.94,1278.75,1101.94z"/>
<path class="st1" d="M1278.75,1769.46H423.13c-45.58,0-82.53-36.95-82.53-82.53v-457.83c0-45.58,36.95-82.53,82.53-82.53h855.62
	c45.58,0,82.53,36.95,82.53,82.53v457.83C1361.28,1732.51,1324.33,1769.46,1278.75,1769.46z"/>
<path class="st2" d="M1181.33,621.87H512.4c-45.58,0-82.53-36.95-82.53-82.53v0c0-45.58,36.95-82.53,82.53-82.53h668.94
	c45.58,0,82.53,36.95,82.53,82.53v0C1263.86,584.92,1226.91,621.87,1181.33,621.87z"/>
<path class="st2" d="M1181.33,1484.79H512.4c-45.58,0-82.53-36.95-82.53-82.53v0c0-45.58,36.95-82.53,82.53-82.53h668.94
	c45.58,0,82.53,36.95,82.53,82.53v0C1263.86,1447.84,1226.91,1484.79,1181.33,1484.79z"/>
<path class="st2" d="M1181.33,1675.14H512.4c-45.58,0-82.53-36.95-82.53-82.53v0c0-45.58,36.95-82.53,82.53-82.53h668.94
	c45.58,0,82.53,36.95,82.53,82.53v0C1263.86,1638.19,1226.91,1675.14,1181.33,1675.14z"/>
<path class="st2" d="M1181.33,825.26H512.4c-45.58,0-82.53-36.95-82.53-82.53v0c0-45.58,36.95-82.53,82.53-82.53h668.94
	c45.58,0,82.53,36.95,82.53,82.53v0C1263.86,788.31,1226.91,825.26,1181.33,825.26z"/>
<path class="st2" d="M1181.33,1015.61H512.4c-45.58,0-82.53-36.95-82.53-82.53v0c0-45.58,36.95-82.53,82.53-82.53h668.94
	c45.58,0,82.53,36.95,82.53,82.53v0C1263.86,978.66,1226.91,1015.61,1181.33,1015.61z"/>
<text transform="matrix(1 0 0 1 310.4209 231.1841)" class="st3 st4">Experiment</text>
<text transform="matrix(1 0 0 1 443.2539 407.6313)" class="st3 st4">Sample A</text>
<text transform="matrix(1 0 0 1 443.2539 1259.2539)" class="st3 st4">Sample B</text>
<text transform="matrix(1 0 0 1 536.9111 567.6206)" class="st3 st4">Cluster 1</text>
<text transform="matrix(1 0 0 1 539.8008 777.2466)" class="st3 st4">Cluster 2</text>
<text transform="matrix(1 0 0 1 539.8008 962.5483)" class="st3 st4">Cluster 3</text>
<text transform="matrix(1 0 0 1 539.8018 1432.9863)" class="st3 st4">Cluster 1</text>
<text transform="matrix(1 0 0 1 542.6934 1620.0586)" class="st3 st4">Cluster 2</text>
</svg>
